# xmcd
#
# Track frame offsets: 
#        150
#        22089
#        34445
#        55724
#        76158
#        98424
#        115948
#        134153
#        162934
#
# Disc length: 2399 seconds
#
# Revision: 0
# Processed by: cddbd v1.5.2PL0 Copyright (c) Steve Scherf et al.
# Submitted via: ExactAudioCopy v0.99pb5
#
DISCID=71095d09
DTITLE=Bartek Miarka - Bartek Miarka
DYEAR=2012
DGENRE=Blues
TTITLE0=01.Do your thing
TTITLE1=02.Everything is alright
TTITLE2=03.All you need
TTITLE3=04.god sent me an angel
TTITLE4=05.Jesus is waiting
TTITLE5=06.Ive got a problem
TTITLE6=07. Little boy Leon
TTITLE7=08.Slam the door
TTITLE8=09.Matted milk
EXTD=
EXTT0=
EXTT1=
EXTT2=
EXTT3=
EXTT4=
EXTT5=
EXTT6=
EXTT7=
EXTT8=
PLAYORDER=
